PathFileType	4	(X/Y/Z)	Patient4_TMGait_0pt4_02_left_36.trc.trc
DataRate	CameraRate	NumFrames	NumMarkers	Units	OrigDataRate	OrigDataStartFrame	OrigNumFrames
76.923076923077	76.923076923077	4	33	mm	76.923076923077	106	       141
Frame#	Time	Sacral			L.Shoulder			Chest			R.Shoulder			Neck			R.ASIS			L.ASIS			R.Thigh.Superior			R.Thigh.Lateral			R.Thigh.Inferior			R.Patella			L.Thigh.Superior			L.Thigh.Lateral			L.Thigh.Inferior			L.Patella			L.Shank.Superior			L.Shank.Lateral			L.Shank.Inferior			R.Shank.Superior			R.Shank.Lateral			R.Shank.Inferior			R.Heel			R.Midfoot.Superior			R.Midfoot.Lateral			R.Toe			L.Heel			L.Midfoot.Lateral			L.Midfoot.Superior			L.Toe			L.Elbow			L.Wrist			R.Elbow			R.Wrist			
		X1	Y1	Z1	X2	Y2	Z2	X3	Y3	Z3	X4	Y4	Z4	X5	Y5	Z5	X6	Y6	Z6	X7	Y7	Z7	X8	Y8	Z8	X9	Y9	Z9	X10	Y10	Z10	X11	Y11	Z11	X12	Y12	Z12	X13	Y13	Z13	X14	Y14	Z14	X15	Y15	Z15	X16	Y16	Z16	X17	Y17	Z17	X18	Y18	Z18	X19	Y19	Z19	X20	Y20	Z20	X21	Y21	Z21	X22	Y22	Z22	X23	Y23	Z23	X24	Y24	Z24	X25	Y25	Z25	X26	Y26	Z26	X27	Y27	Z27	X28	Y28	Z28	X29	Y29	Z29	X30	Y30	Z30	X31	Y31	Z31	X32	Y32	Z32	X33	Y33	Z33	

106	49.515000000000	828.607778700034	1005.805327613284	523.457598247200	973.095003517421	1439.625560048964	330.293986995419	1100.217175022920	1372.335351363401	473.570753880943	1041.415211028013	1439.026555713255	660.217049462854	977.153868001280	1498.925789107656	488.324609722461	1069.876663132927	943.878869743143	610.334580527876	1022.818636943187	969.390000351835	340.884548369136	1091.492785003081	737.342350391611	577.451342279874	1007.314882760276	632.446147016304	646.172129759555	1071.739965638757	576.029037422098	560.362280546304	1064.945285252400	490.210620085532	566.414099854271	1110.452254366726	786.822895833530	358.644206846070	1063.073550103866	659.916692934556	280.194321134425	1172.652191337703	602.133814154896	332.331433490849	1194.211776543302	522.686848932812	320.502283275678	1150.410944384258	448.916781826063	310.600068372346	1032.800930396823	357.439307537890	269.164413660533	1080.472312277420	230.343334203246	311.116288545525	1034.326047903648	401.887668208227	574.677628022697	962.561293193690	300.213240844236	638.908143251503	996.480998376523	204.446826971473	571.987589260748	857.685908437165	42.556118845819	543.486894895582	1027.844085249240	95.890770242797	578.465098942629	940.918145827968	36.947947185061	618.444096759480	1149.088136238397	44.041214335224	606.627103105833	942.135714254318	87.909481811636	359.265395283655	1000.876893308844	78.453614905021	268.300664127455	1094.611959338218	129.614375690731	281.557663461930	1206.974280664994	66.110658389118	230.310729282477	895.867674109059	1091.649265695083	225.460502685823	913.093706320610	831.225620519076	215.282301854393	1137.030043057937	1109.341332409045	788.934777637176	1381.223308534426	1048.400687983186	737.236591375997	
107	49.528000000000	828.244602354475	1006.014996769295	524.874723787503	971.796244770470	1439.629069884687	330.973656480201	1100.218838967294	1371.976266124887	472.924265905074	1043.433780176288	1438.932276284751	660.138331401955	977.766063780319	1498.881739921950	488.793381068816	1069.970619419035	943.493571712653	609.788187450551	1021.174560017953	969.472273590365	340.638074471425	1089.880113525844	736.682949861617	576.696090364776	1005.453202370984	632.225990748325	646.215247632951	1068.659731166678	575.478434696671	560.003370311733	1061.395190962278	489.806247075223	566.233065384888	1108.569420400107	787.186941051946	358.760683474473	1062.218609983495	660.478378200147	279.805198607935	1171.261471513824	602.965095207832	333.347433508540	1194.268636116315	525.211161406251	320.878146695696	1153.714522594633	451.168749214230	310.374564859766	1041.434442014749	353.738024721812	268.054803019982	1095.965695182126	228.879077986888	309.581142447623	1030.368901961307	401.523456232820	574.563438887593	958.511136767150	300.058263449787	639.065423209491	991.790023959261	204.216365636318	571.969887386821	852.435081949032	42.589044913623	543.572119969569	1022.639059715941	95.843455576900	578.493180750054	935.696351308812	36.926106767826	618.510070691259	1143.875408309241	43.920094199894	606.650599023492	965.635471790409	78.557413632509	356.924573953389	1025.055197875186	72.793980634716	266.022895625382	1115.892417036731	128.929704174087	279.610943296789	1231.714610925293	71.841474020400	228.381843746075	887.576670962791	1093.129393571211	227.818694928612	897.176671822000	832.377983353066	219.465436967691	1145.064391784878	1111.297579630291	787.677599624691	1391.425557182073	1063.245738530070	734.242614139096	
108	49.541000000000	827.851302069603	1006.192620010151	526.062952435932	970.658884627822	1439.610081805481	331.454326365547	1100.267280979884	1371.539662127264	472.133062858682	1045.425174992775	1438.748933510192	659.868991060249	978.441565159957	1498.788810313066	489.079496698592	1070.001049476942	943.091105000212	609.123824012972	1019.588939391841	969.441125256344	340.242200448330	1088.283608636227	736.006280896030	575.988544289726	1003.553624336421	631.993230805665	646.215489298795	1065.570042169595	574.921298335943	559.636654552392	1057.798505409273	489.387864322570	566.017871209476	1106.558231342426	787.290587119859	358.896290311323	1061.251393437651	660.866588644454	279.294647349850	1169.622823783497	603.479796725431	334.332072567067	1193.997981015050	527.474738628282	321.367517345377	1156.651856282751	453.289504161614	310.352053236627	1050.022038611848	350.375110648376	266.693705239799	1110.744691604111	228.059997956473	308.284667589378	1026.392197109227	401.166682564707	574.436910554244	954.426612300093	299.913249228827	639.215410852545	987.083188075772	203.996453692514	571.956020395108	847.181668769804	42.617964934615	543.658728434145	1017.431982879584	95.792881946084	578.510100664944	930.470462110203	36.902688351538	618.575695654019	1138.659639362624	43.807619348548	606.671876767962	988.179539724615	70.704676127213	354.272716224686	1048.625206245351	68.304126042898	263.844751068472	1136.376082650164	129.042633846960	278.178679167309	1255.441674000446	78.083216234047	227.835114233903	879.558466300979	1094.745040613482	230.022890616784	882.297539582382	833.872569597384	223.582464316995	1152.779756532604	1113.129189507421	786.083937454313	1400.583637172086	1077.377204047666	731.197635911581	
109	49.554000000000	827.445400462725	1006.348494673016	527.013021052761	969.694428318448	1439.573945643864	331.722745428662	1100.362080330696	1371.043437744196	471.201215828983	1047.368799282592	1438.497654040002	659.406472790734	979.175834150921	1498.659463259337	489.172999943401	1069.977099156301	942.678443698240	608.356106229536	1018.084365990620	969.324223274487	339.701678019906	1086.701802478323	735.315189395328	575.337129481266	1001.599415135563	631.756083876081	646.163766389286	1062.472112495085	574.357669530455	559.264335000392	1054.144618769427	488.955800576985	565.760456331924	1104.493144061208	787.201487906850	359.026325528503	1060.195524611471	661.097814688505	278.703136894443	1167.844260764369	603.727700786170	335.184746573060	1193.468125407238	529.477500649020	321.943853955773	1159.243306123813	455.268634904008	310.519321092437	1058.427853652504	347.425341497926	265.140729260977	1124.587892632080	227.849364853859	307.251708629164	1022.394590724270	400.822694762592	574.290732323719	950.298121319536	299.787057228424	639.346025426157	982.359619241811	203.792015749583	571.942133738865	841.928063048923	42.643773755363	543.745294221230	1012.221874982727	95.738770920571	578.509679628312	925.240380522675	36.879277288087	618.638917997051	1133.440573762046	43.704730481079	606.692783385065	1009.348125896734	64.391568118728	351.414747746441	1071.167097708830	64.949166204850	261.852096182904	1155.748613543114	129.842715233816	277.287706379359	1277.821206673525	84.581675460138	228.673870956378	871.867885998971	1096.468068823226	232.086006110502	868.462370566218	835.622505988978	227.578289109725	1160.130073395872	1114.832081741356	784.170306055106	1408.740046628302	1090.681050124892	728.118960540386	
